<?xml version="1.0" standalone="no"?>
<!DOCTYPE svg PUBLIC "-//W3C//DTD SVG 20010904//EN"
 "http://www.w3.org/TR/2001/REC-SVG-20010904/DTD/svg10.dtd">
<svg version="1.0" xmlns="http://www.w3.org/2000/svg"
 width="960.000000pt" height="720.000000pt" viewBox="0 0 960.000000 720.000000"
 preserveAspectRatio="xMidYMid meet">

<g transform="translate(0.000000,720.000000) scale(0.100000,-0.100000)"
fill="#000000" stroke="none">
<path d="M2407 4700 c-195 -49 -314 -245 -286 -470 16 -127 64 -213 154 -275
76 -53 161 -76 275 -77 110 0 171 13 253 54 49 24 57 32 52 49 -11 33 -54 129
-59 129 -2 0 -29 -12 -60 -26 -67 -31 -188 -43 -253 -25 -77 21 -142 101 -143
174 l0 27 266 0 267 0 -5 88 c-10 161 -70 267 -184 323 -57 28 -79 33 -153 36
-47 1 -103 -2 -124 -7z m180 -159 c45 -21 75 -66 87 -133 l7 -38 -171 0 c-186
0 -178 -3 -159 63 29 104 136 153 236 108z"/>
<path d="M3445 4701 c-50 -13 -108 -47 -145 -85 -30 -32 -35 -34 -42 -19 -3
10 -7 35 -7 56 l-1 37 -116 0 c-102 0 -115 -2 -110 -16 3 -9 6 -189 6 -400 l0
-384 120 0 120 0 0 255 c0 235 2 259 20 295 27 54 72 83 137 88 73 6 111 -11
134 -62 17 -37 19 -70 19 -308 l0 -268 115 0 115 0 0 285 c0 314 -6 362 -53
432 -45 66 -105 96 -205 99 -42 2 -90 0 -107 -5z"/>
<path d="M3900 4687 c0 -3 75 -177 166 -388 91 -211 168 -390 171 -397 4 -9
31 -12 106 -10 l101 3 167 384 c92 211 170 390 173 397 4 11 -16 14 -108 14
l-114 0 -102 -252 c-56 -139 -105 -257 -108 -262 -3 -5 -51 107 -107 250
l-102 259 -122 3 c-66 1 -121 1 -121 -1z"/>
<path d="M6340 3481 l-105 -27 -3 -102 -3 -102 -74 0 -75 0 0 -85 0 -85 74 0
73 0 6 -212 c5 -224 13 -266 58 -329 26 -38 83 -74 138 -89 46 -12 173 -15
215 -4 26 6 26 7 26 93 l0 86 -70 0 c-63 0 -72 3 -97 28 l-28 27 -3 200 -3
200 105 0 106 0 0 85 0 85 -105 0 -105 0 0 130 c0 98 -3 130 -12 129 -7 0 -60
-13 -118 -28z"/>
<path d="M2341 3254 c-107 -29 -191 -107 -207 -191 -11 -58 1 -130 29 -172 36
-54 107 -86 254 -114 140 -27 173 -44 173 -88 0 -55 -23 -76 -102 -93 -60 -13
-182 14 -314 70 -7 3 -23 -24 -40 -66 -24 -63 -26 -72 -12 -86 25 -25 152 -64
240 -72 219 -23 388 48 427 177 28 96 -1 193 -74 244 -31 21 -74 35 -184 57
-79 16 -154 36 -166 44 -47 31 -32 112 24 136 20 8 60 11 114 8 66 -3 96 -11
150 -36 l68 -31 23 53 c41 93 42 90 -14 120 -96 53 -275 71 -389 40z"/>
<path d="M3200 3255 c-157 -45 -262 -180 -276 -358 -15 -180 58 -333 194 -405
76 -41 137 -53 252 -53 103 0 195 22 262 63 l36 23 -30 75 -31 75 -58 -29
c-49 -24 -75 -30 -151 -33 -87 -4 -97 -3 -148 24 -61 31 -96 80 -102 143 l-3
35 268 3 267 2 0 43 c0 177 -80 323 -208 379 -62 28 -196 34 -272 13z m183
-149 c56 -23 97 -89 97 -152 l0 -24 -169 0 -169 0 7 33 c28 121 133 186 234
143z"/>
<path d="M4093 3255 c-115 -31 -197 -94 -243 -188 -95 -195 -48 -437 107 -552
131 -96 367 -103 516 -15 40 24 41 10 -12 133 l-21 48 -29 -20 c-64 -46 -193
-60 -256 -29 -43 22 -86 74 -100 122 -31 104 -11 227 47 283 44 42 80 55 157
55 51 0 76 -7 125 -31 33 -16 61 -29 61 -28 39 90 56 140 52 151 -4 9 -24 24
-46 36 -94 47 -253 63 -358 35z"/>
<path d="M5038 3256 c-60 -22 -88 -44 -121 -99 l-32 -51 -9 72 -9 72 -111 0
-111 0 3 -400 2 -400 120 0 120 0 0 231 c0 257 6 294 56 345 50 49 161 67 237
38 16 -6 17 2 15 97 l-3 104 -60 2 c-33 2 -77 -4 -97 -11z"/>
<path d="M5528 3251 c-72 -24 -117 -52 -162 -101 -77 -86 -112 -194 -103 -329
6 -112 35 -186 97 -254 82 -90 186 -129 345 -128 101 0 186 19 256 57 l47 26
-31 74 c-24 58 -35 73 -47 68 -194 -87 -369 -66 -424 51 -10 20 -20 52 -23 71
l-6 34 272 0 271 0 0 24 c0 63 -24 186 -45 232 -31 70 -86 128 -151 160 -74
36 -211 43 -296 15z m222 -159 c34 -26 58 -69 66 -120 l7 -42 -172 0 -171 0 6
28 c24 108 96 168 189 158 27 -3 61 -14 75 -24z"/>
<path d="M7005 3256 c-73 -18 -128 -50 -167 -96 -100 -116 -63 -287 74 -344
20 -9 94 -27 164 -41 141 -27 167 -42 167 -95 0 -106 -187 -114 -414 -16 -13
6 -21 -6 -39 -56 -12 -35 -25 -68 -27 -75 -7 -17 84 -60 164 -79 99 -23 252
-21 333 5 125 39 189 121 190 239 0 69 -13 103 -57 144 -40 39 -89 56 -230 83
-150 29 -173 42 -173 101 0 53 38 78 127 83 82 4 130 -7 207 -45 27 -14 50
-23 51 -22 7 12 55 131 55 138 0 15 -95 59 -162 75 -75 18 -194 18 -263 1z"/>
</g>
</svg>
