<?xml version="1.0" encoding="UTF-8"?>
<svg xmlns="http://www.w3.org/2000/svg" xmlns:xlink="http://www.w3.org/1999/xlink" width="20480px" height="15360px" viewBox="0 0 20480 15360" version="1.1">
<g id="surface1">
<path style=" stroke:none;fill-rule:nonzero;fill:rgb(0%,0%,0%);fill-opacity:1;" d="M 16469.332031 6397.867188 L 16245.332031 6455.464844 L 16232.535156 6890.667969 L 15914.667969 6890.667969 L 15914.667969 7253.332031 L 16230.398438 7253.332031 L 16238.933594 7705.601562 C 16251.734375 8232.535156 16270.933594 8313.601562 16418.132812 8460.800781 C 16554.667969 8599.464844 16827.734375 8657.066406 17094.398438 8608 L 17173.332031 8593.066406 L 17173.332031 8219.734375 L 17021.867188 8221.867188 C 16878.933594 8224 16868.265625 8221.867188 16808.535156 8153.601562 L 16746.667969 8085.332031 L 16746.667969 7253.332031 L 17173.332031 7253.332031 L 17173.332031 6890.667969 L 16746.667969 6890.667969 L 16746.667969 6613.332031 C 16746.667969 6404.265625 16740.265625 6336 16721.066406 6338.132812 C 16706.132812 6338.132812 16593.066406 6365.867188 16469.332031 6397.867188 Z M 16469.332031 6397.867188 "/>
<path style=" stroke:none;fill-rule:nonzero;fill:rgb(0%,0%,0%);fill-opacity:1;" d="M 2276.265625 6869.332031 C 2052.265625 6926.933594 1836.800781 7110.398438 1732.265625 7334.398438 C 1627.734375 7560.535156 1644.800781 8017.066406 1766.398438 8211.199219 C 1941.332031 8490.667969 2199.464844 8620.800781 2581.332031 8620.800781 C 2816 8622.933594 2946.132812 8595.199219 3121.066406 8507.734375 C 3229.867188 8454.398438 3242.667969 8439.464844 3229.867188 8398.933594 C 3206.398438 8326.398438 3118.933594 8128 3108.265625 8128 C 3101.867188 8128 3042.132812 8153.601562 2973.867188 8185.601562 C 2828.800781 8251.734375 2581.332031 8275.199219 2438.398438 8236.800781 C 2274.132812 8192 2135.464844 8021.332031 2133.332031 7865.601562 L 2133.332031 7808 L 3270.398438 7808 L 3259.734375 7620.265625 C 3238.398438 7274.667969 3116.800781 7059.199219 2873.601562 6935.464844 C 2745.601562 6869.332031 2707.199219 6860.800781 2542.933594 6856.535156 C 2440.535156 6852.265625 2321.066406 6858.667969 2276.265625 6869.332031 Z M 2660.265625 7208.535156 C 2756.265625 7253.332031 2820.265625 7349.332031 2845.867188 7492.265625 L 2860.800781 7573.332031 L 2496 7573.332031 C 2099.199219 7573.332031 2112 7577.601562 2158.933594 7443.199219 C 2197.332031 7328 2261.332031 7251.199219 2355.199219 7208.535156 C 2466.132812 7157.332031 2547.199219 7159.464844 2660.265625 7208.535156 Z M 2660.265625 7208.535156 "/>
<path style=" stroke:none;fill-rule:nonzero;fill:rgb(0%,0%,0%);fill-opacity:1;" d="M 4469.332031 6875.734375 C 4332.800781 6922.667969 4256 6967.464844 4183.464844 7052.800781 C 4145.066406 7095.464844 4108.800781 7123.199219 4102.398438 7116.800781 C 4096 7110.398438 4085.332031 7057.066406 4078.933594 6997.332031 L 4068.265625 6890.667969 L 3825.066406 6890.667969 C 3609.601562 6890.667969 3581.867188 6894.933594 3592.535156 6924.800781 C 3598.933594 6944 3605.332031 7328 3605.332031 7778.132812 L 3605.332031 8597.332031 L 4117.332031 8597.332031 L 4117.332031 8057.601562 C 4117.332031 7456 4130.132812 7392 4266.667969 7296 C 4352 7236.265625 4535.464844 7214.933594 4627.199219 7253.332031 C 4763.734375 7308.800781 4768 7330.132812 4774.398438 7993.601562 L 4780.800781 8597.332031 L 5269.332031 8597.332031 L 5269.332031 7989.332031 C 5269.332031 7633.066406 5260.800781 7338.667969 5245.867188 7274.667969 C 5213.867188 7121.066406 5109.332031 6978.132812 4985.601562 6914.132812 C 4861.867188 6850.132812 4603.734375 6833.066406 4469.332031 6875.734375 Z M 4469.332031 6875.734375 "/>
<path style=" stroke:none;fill-rule:nonzero;fill:rgb(0%,0%,0%);fill-opacity:1;" d="M 7940.265625 6882.132812 C 7643.734375 6961.066406 7488 7140.265625 7488 7404.800781 C 7490.132812 7690.667969 7639.464844 7814.398438 8070.398438 7893.332031 C 8366.933594 7948.800781 8441.601562 7978.667969 8460.800781 8053.332031 C 8505.601562 8234.667969 8332.800781 8322.132812 8021.332031 8277.332031 C 7936 8264.535156 7808 8230.398438 7735.464844 8200.535156 C 7665.066406 8170.667969 7592.535156 8145.066406 7577.601562 8142.933594 C 7560.535156 8140.800781 7524.265625 8202.667969 7490.132812 8292.265625 L 7428.265625 8448 L 7539.199219 8501.332031 C 7780.265625 8618.667969 8228.265625 8661.332031 8475.734375 8588.800781 C 8817.066406 8488.535156 9002.667969 8179.199219 8885.332031 7899.734375 C 8814.933594 7731.199219 8684.800781 7658.667969 8339.199219 7594.667969 C 8204.800781 7571.199219 8064 7537.066406 8025.601562 7520 C 7891.199219 7458.132812 7891.199219 7287.464844 8027.734375 7217.066406 C 8134.398438 7163.734375 8426.667969 7187.199219 8586.667969 7264 C 8657.066406 7298.132812 8723.199219 7325.867188 8731.734375 7325.867188 C 8742.398438 7328 8778.667969 7261.867188 8812.800781 7180.800781 C 8881.066406 7018.667969 8885.332031 7029.332031 8738.132812 6952.535156 C 8554.667969 6854.398438 8166.398438 6820.265625 7940.265625 6882.132812 Z M 7940.265625 6882.132812 "/>
<path style=" stroke:none;fill-rule:nonzero;fill:rgb(0%,0%,0%);fill-opacity:1;" d="M 9725.867188 6894.933594 C 9401.601562 7010.132812 9205.332031 7283.199219 9179.734375 7658.667969 C 9152 8064 9307.734375 8364.800781 9627.734375 8522.667969 C 9932.800781 8672 10412.800781 8654.933594 10692.265625 8484.265625 L 10771.199219 8437.332031 L 10707.199219 8288 C 10670.933594 8206.933594 10641.066406 8136.535156 10636.800781 8134.398438 C 10632.535156 8130.132812 10574.933594 8153.601562 10508.800781 8183.464844 C 10419.199219 8224 10336 8243.199219 10210.132812 8249.601562 C 9877.332031 8270.933594 9702.398438 8157.867188 9653.332031 7886.933594 L 9638.398438 7808 L 10794.667969 7808 L 10794.667969 7726.933594 C 10794.667969 7353.601562 10634.667969 7046.398438 10376.535156 6920.535156 C 10205.867188 6837.332031 9924.265625 6826.667969 9725.867188 6894.933594 Z M 10214.398438 7225.601562 C 10284.800781 7274.667969 10368 7432.535156 10368 7513.601562 L 10368 7573.332031 L 9642.667969 7573.332031 L 9655.464844 7513.601562 C 9704.535156 7289.601562 9862.398438 7157.332031 10054.398438 7174.398438 C 10112 7178.667969 10184.535156 7202.132812 10214.398438 7225.601562 Z M 10214.398438 7225.601562 "/>
<path style=" stroke:none;fill-rule:nonzero;fill:rgb(0%,0%,0%);fill-opacity:1;" d="M 11671.464844 6882.132812 C 11308.800781 6980.265625 11086.933594 7249.066406 11057.066406 7633.066406 C 11016.535156 8177.066406 11315.199219 8563.199219 11818.667969 8616.535156 C 12038.398438 8637.867188 12234.667969 8608 12409.601562 8522.667969 L 12561.066406 8448 L 12492.800781 8285.867188 C 12454.398438 8198.398438 12413.867188 8128 12403.199219 8130.132812 C 12392.535156 8132.265625 12330.667969 8160 12266.667969 8189.867188 C 12104.535156 8264.535156 11910.398438 8264.535156 11780.265625 8192 C 11643.734375 8115.199219 11579.734375 7993.601562 11566.933594 7786.667969 C 11556.265625 7584 11596.800781 7438.933594 11697.066406 7342.933594 C 11788.800781 7255.464844 11865.601562 7227.734375 12029.867188 7227.734375 C 12140.800781 7227.734375 12192 7240.535156 12294.398438 7293.867188 L 12418.132812 7357.867188 L 12473.601562 7236.265625 C 12552.535156 7057.066406 12550.398438 7020.800781 12448 6961.066406 C 12262.398438 6856.535156 11904 6818.132812 11671.464844 6882.132812 Z M 11671.464844 6882.132812 "/>
<path style=" stroke:none;fill-rule:nonzero;fill:rgb(0%,0%,0%);fill-opacity:1;" d="M 13653.332031 6892.800781 C 13533.867188 6946.132812 13469.867188 7005.867188 13412.265625 7114.667969 L 13367.464844 7200 L 13352.535156 7114.667969 C 13344 7067.734375 13335.464844 6997.332031 13335.464844 6958.933594 L 13333.332031 6890.667969 L 13085.867188 6890.667969 C 12838.398438 6890.667969 12838.398438 6890.667969 12851.199219 6937.601562 C 12857.601562 6965.332031 12864 7349.332031 12864 7790.933594 L 12864 8597.332031 L 13373.867188 8597.332031 L 13380.265625 8057.601562 L 13386.667969 7515.734375 L 13444.265625 7428.265625 C 13478.398438 7379.199219 13536 7323.734375 13572.265625 7304.535156 C 13646.933594 7266.132812 13877.332031 7251.199219 13979.734375 7281.066406 L 14039.464844 7298.132812 L 14033.066406 7078.398438 L 14026.667969 6858.667969 L 13888 6854.398438 C 13785.601562 6850.132812 13725.867188 6858.667969 13653.332031 6892.800781 Z M 13653.332031 6892.800781 "/>
<path style=" stroke:none;fill-rule:nonzero;fill:rgb(0%,0%,0%);fill-opacity:1;" d="M 14777.601562 6869.332031 C 14587.734375 6918.398438 14385.066406 7072 14286.933594 7238.398438 C 14126.933594 7513.601562 14122.667969 7953.066406 14280.535156 8221.867188 C 14359.464844 8356.265625 14530.132812 8501.332031 14673.066406 8554.667969 C 14922.667969 8650.667969 15306.667969 8644.265625 15560.535156 8541.867188 C 15756.800781 8465.066406 15758.933594 8456.535156 15688.535156 8277.332031 C 15635.199219 8138.667969 15594.667969 8098.132812 15562.667969 8149.332031 C 15556.265625 8160 15488 8189.867188 15411.199219 8213.332031 C 15255.464844 8260.265625 15054.933594 8268.800781 14922.667969 8232.535156 C 14813.867188 8202.667969 14688 8076.800781 14658.132812 7968 C 14611.199219 7795.199219 14566.398438 7808 15202.132812 7808 L 15769.601562 7808 L 15761.066406 7609.601562 C 15744 7266.132812 15611.734375 7037.867188 15364.265625 6920.535156 C 15266.132812 6873.601562 15206.398438 6860.800781 15050.667969 6856.535156 C 14946.132812 6852.265625 14822.398438 6858.667969 14777.601562 6869.332031 Z M 15210.667969 7227.734375 C 15283.199219 7283.199219 15334.398438 7374.933594 15351.464844 7483.734375 L 15366.398438 7573.332031 L 14630.398438 7573.332031 L 14645.332031 7502.933594 C 14692.265625 7285.332031 14854.398438 7155.199219 15050.667969 7176.535156 C 15108.265625 7182.933594 15180.800781 7206.398438 15210.667969 7227.734375 Z M 15210.667969 7227.734375 "/>
<path style=" stroke:none;fill-rule:nonzero;fill:rgb(0%,0%,0%);fill-opacity:1;" d="M 17892.265625 6871.464844 C 17772.800781 6899.199219 17619.199219 6984.535156 17542.398438 7065.601562 C 17369.601562 7244.800781 17361.066406 7537.066406 17518.933594 7701.332031 C 17617.066406 7801.601562 17728 7844.265625 18039.464844 7904 C 18199.464844 7933.867188 18325.332031 7970.132812 18348.800781 7991.464844 C 18402.132812 8038.398438 18402.132812 8172.800781 18350.933594 8219.734375 C 18231.464844 8328.535156 17821.867188 8296.535156 17550.933594 8155.734375 C 17516.800781 8138.667969 17486.933594 8128 17482.667969 8132.265625 C 17469.867188 8145.066406 17365.332031 8411.734375 17365.332031 8430.933594 C 17365.332031 8460.800781 17574.398438 8554.667969 17721.601562 8588.800781 C 17894.398438 8629.332031 18235.734375 8633.601562 18368 8597.332031 C 18677.332031 8514.132812 18837.332031 8334.933594 18837.332031 8074.667969 C 18837.332031 7933.867188 18801.066406 7840 18717.867188 7761.066406 C 18632.535156 7680 18532.265625 7643.734375 18267.734375 7592.535156 C 17890.132812 7522.132812 17856 7502.933594 17856 7364.265625 C 17856 7317.332031 17875.199219 7283.199219 17924.265625 7242.667969 C 17990.398438 7187.199219 18001.066406 7185.066406 18186.667969 7193.601562 C 18346.667969 7200 18402.132812 7212.800781 18523.734375 7270.398438 L 18668.800781 7336.535156 L 18732.800781 7197.867188 C 18766.933594 7121.066406 18794.667969 7048.535156 18794.667969 7037.867188 C 18794.667969 7005.867188 18589.867188 6914.132812 18449.066406 6880 C 18301.867188 6845.867188 18020.265625 6841.601562 17892.265625 6871.464844 Z M 17892.265625 6871.464844 "/>
<path style=" stroke:none;fill-rule:nonzero;fill:rgb(0%,0%,0%);fill-opacity:1;" d="M 5467.734375 6916.265625 C 5474.132812 6931.199219 5638.398438 7317.332031 5834.667969 7771.734375 L 6193.066406 8599.464844 L 6408.535156 8593.066406 L 6621.867188 8586.667969 L 6990.933594 7744 C 7193.601562 7281.066406 7360 6899.199219 7360 6894.933594 C 7360 6892.800781 7251.199219 6890.667969 7116.800781 6890.667969 L 6873.601562 6890.667969 L 6656 7428.265625 C 6536.535156 7724.800781 6432 7976.535156 6425.601562 7987.199219 C 6419.199219 7997.867188 6316.800781 7756.800781 6197.332031 7453.867188 L 5979.734375 6901.332031 L 5717.332031 6894.933594 C 5512.535156 6890.667969 5459.199219 6894.933594 5467.734375 6916.265625 Z M 5467.734375 6916.265625 "/>
</g>
</svg>
