<?xml version="1.0" standalone="no"?>
<!DOCTYPE svg PUBLIC "-//W3C//DTD SVG 20010904//EN"
 "http://www.w3.org/TR/2001/REC-SVG-20010904/DTD/svg10.dtd">
<svg version="1.0" xmlns="http://www.w3.org/2000/svg"
 width="256.000000pt" height="256.000000pt" viewBox="0 0 256.000000 256.000000"
 preserveAspectRatio="xMidYMid meet">

<g transform="translate(0.000000,256.000000) scale(0.100000,-0.100000)"
fill="#000000" stroke="none">
<path d="M0 1280 l0 -1280 1280 0 1280 0 0 1280 0 1280 -1280 0 -1280 0 0
-1280z m1360 355 c0 -7 -381 -748 -389 -757 -4 -4 -95 164 -203 374 -194 377
-197 383 -175 395 12 7 27 12 33 13 6 0 41 -59 78 -130 l68 -130 196 2 197 3
68 133 68 132 29 -15 c17 -9 30 -18 30 -20z m575 -35 c23 -11 51 -30 63 -43
l21 -23 -22 -28 -23 -28 -48 33 c-45 32 -52 34 -136 34 -84 0 -90 -1 -119 -29
-25 -24 -31 -38 -31 -74 0 -24 5 -52 10 -63 15 -28 72 -53 177 -79 160 -39
217 -94 218 -210 0 -85 -25 -135 -90 -175 -46 -29 -54 -30 -159 -30 -101 0
-116 2 -162 27 -46 24 -105 79 -104 96 0 4 12 20 26 36 l25 29 31 -37 c46 -56
100 -80 183 -80 117 0 173 48 162 141 -8 75 -49 101 -224 142 -76 18 -140 63
-163 114 -53 115 3 228 129 264 62 17 183 9 236 -17z"/>
<path d="M810 1325 c0 -3 36 -73 79 -156 l79 -152 76 151 c42 84 76 154 76
157 0 3 -70 5 -155 5 -85 0 -155 -2 -155 -5z"/>
</g>
</svg>
